<?xml version="1.0" standalone="no"?>
<!DOCTYPE svg PUBLIC "-//W3C//DTD SVG 20010904//EN"
 "http://www.w3.org/TR/2001/REC-SVG-20010904/DTD/svg10.dtd">
<svg version="1.0" xmlns="http://www.w3.org/2000/svg"
 width="400.000000pt" height="400.000000pt" viewBox="0 0 400.000000 400.000000"
 preserveAspectRatio="xMidYMid meet">

<g transform="translate(0.000000,400.000000) scale(0.100000,-0.100000)"
fill="#000000" stroke="none">
<path d="M0 2000 l0 -2000 26 0 c17 0 23 4 18 13 -6 10 -4 10 7 0 10 -10 420
-13 1981 -13 l1968 0 0 2000 0 2000 -870 0 c-478 -1 -870 -2 -870 -4 0 -2 26
-12 58 -21 131 -40 170 -54 232 -83 105 -50 189 -140 225 -242 21 -56 21 -60
30 -145 4 -38 9 -79 11 -90 2 -11 9 -63 15 -115 5 -52 17 -120 26 -150 9 -30
18 -85 20 -122 l5 -67 -114 -113 c-62 -63 -139 -142 -171 -176 -33 -34 -65
-62 -73 -62 -8 0 -14 -4 -14 -9 0 -5 -19 -7 -42 -6 -26 1 -30 1 -10 -2 62 -8
36 -25 -133 -87 -60 -22 -87 -26 -180 -26 -61 0 -175 7 -254 17 -133 15 -147
19 -185 47 -23 17 -53 39 -68 49 -15 9 -36 37 -47 60 -11 24 -27 50 -36 57 -8
7 -15 18 -15 26 0 7 -6 17 -13 21 -26 15 -88 114 -142 228 -50 105 -55 120
-55 184 0 63 4 78 41 148 57 106 109 193 117 193 4 0 34 25 66 56 64 60 105
81 181 94 28 5 70 13 95 19 30 6 51 6 64 -1 17 -9 18 -7 12 17 -5 21 -1 35 21
62 15 20 44 66 63 102 23 43 49 76 77 96 23 16 42 33 42 38 1 4 -474 7 -1054
7 l-1055 0 0 -2000z m2059 1987 c-2 -1 -13 -9 -24 -17 -19 -14 -19 -14 -6 3 7
9 18 17 24 17 6 0 8 -1 6 -3z m348 -3 c-3 -3 -12 -4 -19 -1 -8 3 -5 6 6 6 11
1 17 -2 13 -5z m60 -20 c-3 -3 -12 -4 -19 -1 -8 3 -5 6 6 6 11 1 17 -2 13 -5z
m68 -24 c3 -5 -4 -6 -15 -3 -11 3 -22 9 -25 13 -3 5 4 6 15 3 11 -3 22 -9 25
-13z m-515 0 c0 -5 -6 -10 -13 -10 -7 0 -20 -12 -29 -27 -10 -16 -18 -23 -18
-17 0 11 45 64 55 64 3 0 5 -4 5 -10z m560 -20 c8 -5 11 -10 5 -10 -5 0 -17 5
-25 10 -8 5 -10 10 -5 10 6 0 17 -5 25 -10z m75 -50 c10 -11 16 -20 13 -20 -3
0 -13 9 -23 20 -10 11 -16 20 -13 20 3 0 13 -9 23 -20z m-703 -32 c-8 -8 -9
-4 -5 13 4 13 8 18 11 10 2 -7 -1 -18 -6 -23z m790 -53 c11 -21 10 -20 -37 35
l-30 35 28 -25 c16 -14 33 -34 39 -45z m-839 0 c-3 -9 -8 -14 -10 -11 -3 3 -2
9 2 15 9 16 15 13 8 -4z m889 -70 c3 -13 1 -22 -3 -19 -9 5 -13 44 -5 44 2 0
6 -11 8 -25z m-1077 -25 c-27 -12 -43 -12 -25 0 8 5 22 9 30 9 10 0 8 -3 -5
-9z m-60 -20 c-3 -5 -12 -10 -18 -10 -7 0 -6 4 3 10 19 12 23 12 15 0z m1172
-72 c-3 -8 -6 -5 -6 6 -1 11 2 17 5 13 3 -3 4 -12 1 -19z m-1383 -98 c-15 -22
-29 -40 -31 -40 -5 0 3 15 29 53 30 43 31 32 2 -13z m1403 -72 c-3 -8 -6 -5
-6 6 -1 11 2 17 5 13 3 -3 4 -12 1 -19z m-1454 -13 c-3 -9 -8 -14 -10 -11 -3
3 -2 9 2 15 9 16 15 13 8 -4z m-23 -45 c-6 -11 -13 -20 -16 -20 -2 0 0 9 6 20
6 11 13 20 16 20 2 0 0 -9 -6 -20z m-47 -80 c-3 -12 -8 -19 -11 -16 -5 6 5 36
12 36 2 0 2 -9 -1 -20z m1549 -39 c2 -17 1 -28 -4 -25 -8 5 -12 54 -4 54 2 0
6 -13 8 -29z m22 -96 c3 -8 1 -15 -4 -15 -6 0 -10 7 -10 15 0 8 2 15 4 15 2 0
6 -7 10 -15z m13 -77 c-3 -7 -5 -2 -5 12 0 14 2 19 5 13 2 -7 2 -19 0 -25z
m-1583 -34 c3 -8 2 -12 -4 -9 -6 3 -10 10 -10 16 0 14 7 11 14 -7z m19 -44 c3
-11 1 -18 -4 -14 -5 3 -9 12 -9 20 0 20 7 17 13 -6z m30 -60 c3 -11 2 -18 -3
-15 -4 3 -10 14 -13 25 -3 11 -2 18 3 15 4 -3 10 -14 13 -25z m1537 0 c0 -5
-5 -10 -11 -10 -5 0 -7 5 -4 10 3 6 8 10 11 10 2 0 4 -4 4 -10z m-1505 -60 c9
-16 13 -30 11 -30 -3 0 -12 14 -21 30 -9 17 -13 30 -11 30 3 0 12 -13 21 -30z
m1448 0 c-10 -11 -19 -20 -21 -20 -1 0 2 9 8 20 6 11 15 20 20 20 6 0 2 -9 -7
-20z m-1466 -36 c-3 -3 -12 -4 -19 -1 -8 3 -5 6 6 6 11 1 17 -2 13 -5z m1433
3 c0 -2 -10 -12 -22 -23 l-23 -19 19 23 c18 21 26 27 26 19z m-1563 -13 c-3
-3 -12 -4 -19 -1 -8 3 -5 6 6 6 11 1 17 -2 13 -5z m1512 -37 c-2 -1 -13 -9
-24 -17 -19 -14 -19 -14 -6 3 7 9 18 17 24 17 6 0 8 -1 6 -3z m-1624 -37 c10
-11 16 -20 13 -20 -3 0 -13 9 -23 20 -10 11 -16 20 -13 20 3 0 13 -9 23 -20z
m1584 -3 c-2 -1 -13 -9 -24 -17 -19 -14 -19 -14 -6 3 7 9 18 17 24 17 6 0 8
-1 6 -3z m-1228 -24 c13 -16 12 -17 -3 -4 -17 13 -22 21 -14 21 2 0 10 -8 17
-17z m1138 -71 c-30 -32 -56 -56 -58 -55 -5 4 100 113 108 113 2 0 -20 -26
-50 -58z m-1059 -56 c0 -12 -5 -7 -19 24 -11 24 -11 24 3 6 9 -11 16 -24 16
-30z m-204 -8 l29 -33 -32 29 c-31 28 -38 36 -30 36 2 0 16 -15 33 -32z m1194
-8 c0 -5 -5 -10 -11 -10 -5 0 -7 5 -4 10 3 6 8 10 11 10 2 0 4 -4 4 -10z m-45
-30 c-10 -11 -22 -20 -28 -20 -5 0 1 9 14 20 31 25 37 25 14 0z m-805 -60 c0
-5 -2 -10 -4 -10 -3 0 -8 5 -11 10 -3 6 -1 10 4 10 6 0 11 -4 11 -10z m695 0
c-27 -12 -43 -12 -25 0 8 5 22 9 30 9 10 0 8 -3 -5 -9z m-624 -28 c-18 -2 -37
0 -42 5 -5 5 11 6 34 3 41 -4 41 -5 8 -8z m564 8 c-3 -5 -12 -10 -18 -10 -7 0
-6 4 3 10 19 12 23 12 15 0z m-68 -42 c-3 -8 -6 -5 -6 6 -1 11 2 17 5 13 3 -3
4 -12 1 -19z m-74 -47 c2 -10 1 -24 -3 -30 -4 -7 -7 1 -8 18 -1 35 3 40 11 12z
m-288 -101 c21 -22 37 -40 34 -40 -3 0 -23 18 -44 40 -21 22 -37 40 -34 40 3
0 23 -18 44 -40z m232 -32 c-2 -13 -4 -3 -4 22 0 25 2 35 4 23 2 -13 2 -33 0
-45z m-47 -55 c0 -8 -9 0 -50 45 l-45 47 48 -45 c26 -24 47 -45 47 -47z m29
-137 c-3 -3 -11 5 -18 17 -13 21 -12 21 5 5 10 -10 16 -20 13 -22z m-852 -112
c-3 -3 -12 -4 -19 -1 -8 3 -5 6 6 6 11 1 17 -2 13 -5z m-40 -126 c-3 -8 -6 -5
-6 6 -1 11 2 17 5 13 3 -3 4 -12 1 -19z m30 -140 c-3 -8 -6 -5 -6 6 -1 11 2
17 5 13 3 -3 4 -12 1 -19z m-94 -128 c3 -11 1 -18 -4 -14 -5 3 -9 12 -9 20 0
20 7 17 13 -6z m854 -62 c-3 -8 -6 -5 -6 6 -1 11 2 17 5 13 3 -3 4 -12 1 -19z
m10 -50 c-3 -8 -6 -5 -6 6 -1 11 2 17 5 13 3 -3 4 -12 1 -19z m60 -390 c-3 -7
-5 -2 -5 12 0 14 2 19 5 13 2 -7 2 -19 0 -25z m-10 -70 c-3 -8 -6 -5 -6 6 -1
11 2 17 5 13 3 -3 4 -12 1 -19z m51 -435 c-10 -2 -26 -2 -35 0 -10 3 -2 5 17
5 19 0 27 -2 18 -5z"/>
<path d="M2225 3990 c4 -6 11 -8 16 -5 14 9 11 15 -7 15 -8 0 -12 -5 -9 -10z"/>
<path d="M2210 3905 c0 -2 10 -10 23 -16 20 -11 21 -11 8 4 -13 16 -31 23 -31
12z"/>
<path d="M2010 3855 c-8 -9 -8 -15 -2 -15 12 0 26 19 19 26 -2 2 -10 -2 -17
-11z"/>
<path d="M2190 3866 c0 -2 7 -7 16 -10 8 -3 12 -2 9 4 -6 10 -25 14 -25 6z"/>
<path d="M2345 3844 c46 -7 123 -8 118 -1 -2 4 -34 6 -71 6 -37 -1 -58 -3 -47
-5z"/>
<path d="M2227 3829 c7 -7 15 -10 18 -7 3 3 -2 9 -12 12 -14 6 -15 5 -6 -5z"/>
<path d="M2260 3836 c0 -3 9 -10 20 -16 11 -6 20 -8 20 -6 0 3 -9 10 -20 16
-11 6 -20 8 -20 6z"/>
<path d="M2317 3798 c2 -5 -4 -8 -14 -9 -16 0 -16 -1 2 -9 11 -5 27 -9 35 -9
9 0 7 4 -5 9 -16 6 -11 8 20 9 22 1 58 5 80 10 34 7 27 8 -41 7 -45 0 -80 -4
-77 -8z"/>
<path d="M2047 3763 c-4 -3 -7 -19 -7 -35 0 -15 -5 -28 -12 -28 -9 0 -9 -3 0
-12 15 -15 16 -31 0 -22 -6 4 -8 3 -5 -3 4 -6 -1 -14 -10 -17 -15 -6 -15 -8
-3 -16 19 -12 107 -13 114 -2 3 5 -17 7 -44 4 -28 -2 -50 0 -50 5 0 5 19 9 42
9 40 -1 43 1 57 37 19 52 2 87 -44 87 -17 0 -35 -3 -38 -7z m63 -33 c0 -18
-13 -40 -21 -35 -4 3 -6 12 -2 20 3 10 -1 15 -12 15 -9 0 -14 4 -11 9 7 11 46
3 46 -9z"/>
<path d="M2137 3760 c6 -8 13 -28 16 -45 l4 -30 2 31 c0 20 -6 37 -16 45 -16
12 -16 12 -6 -1z"/>
<path d="M2177 3749 c4 -13 8 -18 11 -10 2 7 -1 18 -6 23 -8 8 -9 4 -5 -13z"/>
<path d="M2623 3748 c-17 -21 -22 -57 -9 -67 8 -7 11 0 10 22 -1 18 4 35 10
39 6 4 8 10 5 13 -4 3 -11 0 -16 -7z"/>
<path d="M1994 3738 c-4 -7 -3 -8 4 -4 7 4 12 2 12 -4 0 -6 5 -8 10 -5 11 7 4
25 -10 25 -5 0 -12 -5 -16 -12z"/>
<path d="M2399 3727 c-9 -12 -18 -43 -21 -69 -5 -42 -2 -50 24 -77 29 -30 71
-41 82 -22 3 4 -5 7 -17 6 -12 -1 -15 0 -7 2 8 2 26 12 39 22 20 15 22 23 16
58 -9 54 -46 73 -94 49 -35 -18 -39 -12 -15 22 21 30 14 37 -7 9z m75 -56 c3
-4 0 -20 -7 -35 -15 -33 -57 -37 -57 -5 0 33 50 64 64 40z"/>
<path d="M2420 3630 c0 -5 5 -10 10 -10 6 0 10 5 10 10 0 6 -4 10 -10 10 -5 0
-10 -4 -10 -10z"/>
<path d="M2525 3730 c3 -5 11 -10 16 -10 6 0 7 5 4 10 -3 6 -11 10 -16 10 -6
0 -7 -4 -4 -10z"/>
<path d="M2266 3696 c-30 -39 -35 -56 -9 -30 17 16 45 64 39 64 -2 0 -15 -15
-30 -34z"/>
<path d="M1918 3633 c6 -2 18 -2 25 0 6 3 1 5 -13 5 -14 0 -19 -2 -12 -5z"/>
<path d="M2541 3637 c2 -1 15 -11 28 -22 l24 -20 -12 23 c-6 12 -19 22 -28 22
-9 0 -14 -1 -12 -3z"/>
<path d="M1735 3618 c-12 -5 -27 -19 -34 -31 -13 -21 -13 -21 6 -4 11 9 22 17
26 17 3 0 25 -26 49 -57 60 -83 117 -133 150 -133 16 0 55 -9 88 -21 33 -11
86 -21 117 -22 32 0 62 -6 66 -11 6 -7 7 -4 3 7 -6 20 5 22 23 5 10 -11 11 -9
5 6 -6 16 -4 18 11 12 11 -4 60 -4 110 0 109 8 146 28 127 69 -10 23 -9 25 11
25 12 0 28 10 36 23 10 17 11 19 0 10 -7 -7 -25 -13 -40 -13 -31 0 -41 -16
-27 -42 9 -20 12 -19 -62 -25 -114 -10 -155 -9 -162 1 -5 8 -8 7 -8 -1 0 -13
-22 -12 -112 3 -35 5 -54 24 -26 24 6 0 8 3 5 6 -4 4 -13 1 -21 -5 -11 -9 -20
-10 -36 -1 -11 6 -26 8 -32 4 -6 -4 -8 -3 -5 3 4 6 -1 14 -11 18 -16 7 -15 8
3 15 14 6 15 9 5 9 -9 1 -21 -4 -27 -10 -13 -13 -36 -3 -28 12 4 5 -4 9 -16 9
-19 0 -152 80 -169 101 -3 3 -14 2 -25 -3z m156 -136 c0 -11 3 -12 6 -4 7 19
23 14 23 -7 0 -14 5 -18 20 -14 19 5 27 -7 14 -20 -14 -14 -98 48 -88 65 8 12
24 0 25 -20z m94 -42 c3 -5 1 -10 -4 -10 -6 0 -11 5 -11 10 0 6 2 10 4 10 3 0
8 -4 11 -10z m106 -38 c-7 -2 -18 1 -23 6 -8 8 -4 9 13 5 13 -4 18 -8 10 -11z
m66 -8 c-3 -3 -12 -4 -19 -1 -8 3 -5 6 6 6 11 1 17 -2 13 -5z"/>
<path d="M2160 3605 c-9 -10 -9 -15 -1 -15 6 0 11 -7 11 -15 0 -9 9 -15 25
-15 14 0 25 5 25 11 0 6 -9 9 -20 6 -15 -4 -20 0 -20 13 0 10 8 21 18 23 13 4
13 5 -4 6 -12 0 -27 -6 -34 -14z"/>
<path d="M2340 3611 c0 -5 5 -13 10 -16 6 -3 10 -2 10 4 0 5 -4 13 -10 16 -5
3 -10 2 -10 -4z"/>
<path d="M1853 3603 c9 -2 25 -2 35 0 9 3 1 5 -18 5 -19 0 -27 -2 -17 -5z"/>
<path d="M2284 3595 c16 -40 18 -55 7 -55 -6 0 -14 7 -17 15 -8 19 -24 20 -24
1 0 -8 -5 -16 -12 -18 -7 -3 -5 -7 6 -11 10 -4 15 -3 11 3 -3 6 -2 10 4 10 5
0 11 -6 14 -12 3 -10 9 -10 24 -1 16 9 24 8 39 -5 10 -9 9 -5 -4 9 -12 14 -22
31 -22 38 0 7 -8 20 -17 29 -16 16 -16 16 -9 -3z"/>
<path d="M2010 3590 c25 -8 137 -13 129 -6 -2 2 -38 6 -79 8 -42 3 -64 2 -50
-2z"/>
<path d="M2364 3579 c-4 -8 -3 -10 4 -5 8 4 12 0 12 -12 0 -10 14 -31 30 -47
l30 -29 20 22 c26 28 25 29 -9 28 -16 -1 -27 -4 -24 -8 2 -5 -1 -8 -6 -8 -6 0
-11 8 -11 18 0 26 -35 58 -46 41z"/>
<path d="M2500 3558 c-12 -22 -12 -22 6 -6 10 10 15 20 12 24 -4 3 -12 -5 -18
-18z"/>
<path d="M1681 3519 c0 -24 4 -53 9 -64 5 -12 6 4 3 40 -7 72 -13 85 -12 24z"/>
<path d="M2168 3543 c6 -2 18 -2 25 0 6 3 1 5 -13 5 -14 0 -19 -2 -12 -5z"/>
<path d="M2190 3506 c-5 -15 -15 -37 -21 -48 -8 -15 -8 -19 0 -14 14 9 43 77
36 84 -2 3 -9 -7 -15 -22z"/>
<path d="M1760 3514 c0 -5 7 -18 15 -28 8 -11 15 -16 15 -10 0 5 -7 18 -15 28
-8 11 -15 16 -15 10z"/>
<path d="M2720 3516 c0 -2 8 -10 18 -17 15 -13 16 -12 3 4 -13 16 -21 21 -21
13z"/>
<path d="M2028 3493 c7 -3 16 -2 19 1 4 3 -2 6 -13 5 -11 0 -14 -3 -6 -6z"/>
<path d="M1790 3452 c1 -12 68 -80 97 -98 27 -16 26 -16 -3 12 -18 16 -46 43
-63 61 -17 18 -31 29 -31 25z"/>
<path d="M1760 3421 c0 -6 4 -13 10 -16 6 -3 7 1 4 9 -7 18 -14 21 -14 7z"/>
<path d="M2545 3410 c3 -14 8 -38 12 -53 5 -24 1 -34 -23 -54 -24 -21 -25 -23
-5 -11 42 25 47 41 28 95 -9 26 -15 37 -12 23z"/>
<path d="M2445 3369 c-22 -22 -35 -39 -29 -39 6 0 21 11 34 25 12 13 26 22 30
20 4 -3 10 4 13 15 7 27 -2 24 -48 -21z"/>
<path d="M2010 3365 c-7 -9 -8 -15 -2 -15 5 0 12 7 16 15 3 8 4 15 2 15 -2 0
-9 -7 -16 -15z"/>
<path d="M2035 3360 c-3 -5 -2 -10 4 -10 5 0 13 5 16 10 3 6 2 10 -4 10 -5 0
-13 -4 -16 -10z"/>
<path d="M2790 3351 c0 -11 -19 -35 -42 -55 -27 -22 -37 -36 -27 -36 9 0 28
11 42 24 14 13 28 22 31 20 3 -2 4 -1 2 2 -2 3 0 19 4 35 5 17 5 29 -1 29 -5
0 -9 -9 -9 -19z"/>
<path d="M1560 3326 c0 -8 4 -17 9 -20 5 -4 7 3 4 14 -6 23 -13 26 -13 6z"/>
<path d="M2452 3328 c-7 -7 -12 -19 -12 -28 0 -9 -6 -22 -12 -30 -7 -8 -2 -5
12 7 14 13 26 32 27 43 2 23 1 24 -15 8z"/>
<path d="M1830 3320 c0 -6 7 -10 15 -10 8 0 15 2 15 4 0 2 -7 6 -15 10 -8 3
-15 1 -15 -4z"/>
<path d="M1935 3320 c3 -5 11 -10 16 -10 6 0 7 5 4 10 -3 6 -11 10 -16 10 -6
0 -7 -4 -4 -10z"/>
<path d="M2290 3320 c-8 -5 -10 -10 -5 -10 6 0 17 5 25 10 8 5 11 10 5 10 -5
0 -17 -5 -25 -10z"/>
<path d="M2370 3320 c-8 -5 -10 -10 -5 -10 6 0 17 5 25 10 8 5 11 10 5 10 -5
0 -17 -5 -25 -10z"/>
<path d="M1908 3303 c7 -3 16 -2 19 1 4 3 -2 6 -13 5 -11 0 -14 -3 -6 -6z"/>
<path d="M2020 3285 c45 -24 124 -33 134 -16 4 5 -4 7 -16 3 -16 -4 -19 -2
-13 9 7 11 6 12 -6 2 -18 -15 -55 -11 -96 10 -18 10 -36 17 -40 17 -4 -1 12
-12 37 -25z"/>
<path d="M2230 3300 c-8 -5 -10 -10 -5 -10 6 0 17 5 25 10 8 5 11 10 5 10 -5
0 -17 -5 -25 -10z"/>
<path d="M1580 3283 c0 -6 8 -17 18 -24 16 -13 16 -13 2 6 -8 11 -16 22 -17
24 -2 2 -3 0 -3 -6z"/>
<path d="M2178 3283 c6 -2 18 -2 25 0 6 3 1 5 -13 5 -14 0 -19 -2 -12 -5z"/>
<path d="M2739 3248 c-12 -39 -1 -49 19 -18 10 17 10 20 -3 20 -8 0 -15 -1
-16 -2z"/>
<path d="M1642 3183 c18 -34 34 -60 36 -58 5 4 -33 76 -52 100 -9 11 -2 -8 16
-42z"/>
<path d="M2330 3230 c-9 -6 -10 -10 -3 -10 6 0 15 5 18 10 8 12 4 12 -15 0z"/>
<path d="M1857 3216 c-4 -10 -5 -21 -2 -24 9 -9 17 6 13 25 -3 17 -4 17 -11
-1z"/>
<path d="M2238 3203 c7 -3 16 -2 19 1 4 3 -2 6 -13 5 -11 0 -14 -3 -6 -6z"/>
<path d="M1361 3184 c0 -11 3 -14 6 -6 3 7 2 16 -1 19 -3 4 -6 -2 -5 -13z"/>
<path d="M1681 3094 c0 -11 3 -14 6 -6 3 7 2 16 -1 19 -3 4 -6 -2 -5 -13z"/>
<path d="M2760 3101 c0 -5 5 -13 10 -16 6 -3 10 -2 10 4 0 5 -4 13 -10 16 -5
3 -10 2 -10 -4z"/>
<path d="M2790 3076 c0 -2 8 -10 18 -17 15 -13 16 -12 3 4 -13 16 -21 21 -21
13z"/>
<path d="M1702 3039 c6 -16 12 -28 14 -26 5 5 -13 57 -20 57 -3 0 0 -14 6 -31z"/>
<path d="M2395 3019 c-4 -6 -5 -12 -2 -15 2 -3 7 2 10 11 7 17 1 20 -8 4z"/>
<path d="M2735 3010 c10 -11 20 -20 23 -20 3 0 -3 9 -13 20 -10 11 -20 20 -23
20 -3 0 3 -9 13 -20z"/>
<path d="M2625 2999 c-4 -6 -5 -12 -2 -15 2 -3 7 2 10 11 7 17 1 20 -8 4z"/>
<path d="M2770 2986 c0 -2 8 -10 18 -17 15 -13 16 -12 3 4 -13 16 -21 21 -21
13z"/>
<path d="M2361 2957 c-13 -21 -12 -21 5 -5 10 10 16 20 13 22 -3 3 -11 -5 -18
-17z"/>
<path d="M1731 2954 c0 -11 3 -14 6 -6 3 7 2 16 -1 19 -3 4 -6 -2 -5 -13z"/>
<path d="M2611 2939 c0 -19 4 -43 9 -54 6 -13 7 -2 3 30 -7 59 -13 72 -12 24z"/>
<path d="M2642 2910 c0 -14 2 -19 5 -12 2 6 2 18 0 25 -3 6 -5 1 -5 -13z"/>
<path d="M2310 2888 c-15 -21 -17 -28 -6 -19 16 13 41 51 33 51 -2 0 -14 -15
-27 -32z"/>
<path d="M2070 2900 c-18 -12 -2 -12 25 0 13 6 15 9 5 9 -8 0 -22 -4 -30 -9z"/>
<path d="M1938 2862 c9 -10 19 -17 21 -16 6 5 -20 34 -30 34 -5 0 -1 -8 9 -18z"/>
<path d="M2636 2793 c-6 -14 -5 -15 5 -6 7 7 10 15 7 18 -3 3 -9 -2 -12 -12z"/>
<path d="M1946 2785 c-9 -26 -7 -32 5 -12 6 10 9 21 6 23 -2 3 -7 -2 -11 -11z"/>
<path d="M2554 2758 l-29 -33 33 29 c30 28 37 36 29 36 -2 0 -16 -15 -33 -32z"/>
<path d="M2579 2733 l-24 -28 28 24 c25 23 32 31 24 31 -2 0 -14 -12 -28 -27z"/>
<path d="M1933 2710 c0 -25 2 -35 4 -22 2 12 2 32 0 45 -2 12 -4 2 -4 -23z"/>
<path d="M2489 2709 l-24 -20 28 17 c15 9 27 18 27 20 0 8 -8 4 -31 -17z"/>
<path d="M2459 2643 c-13 -17 -13 -17 6 -3 11 8 22 16 24 17 2 2 0 3 -6 3 -6
0 -17 -8 -24 -17z"/>
<path d="M1951 2635 c0 -11 6 -29 14 -39 8 -11 15 -15 15 -10 0 6 -4 14 -9 20
-5 5 -11 18 -14 29 l-5 20 -1 -20z"/>
<path d="M2370 2580 c-18 -12 -2 -12 25 0 13 6 15 9 5 9 -8 0 -22 -4 -30 -9z"/>
<path d="M1783 2543 c9 -2 25 -2 35 0 9 3 1 5 -18 5 -19 0 -27 -2 -17 -5z"/>
<path d="M1915 2540 c-3 -5 -1 -10 4 -10 6 0 11 5 11 10 0 6 -2 10 -4 10 -3 0
-8 -4 -11 -10z"/>
<path d="M2067 2518 c5 -10 104 -10 120 0 6 4 -19 7 -57 7 -37 0 -66 -3 -63
-7z"/>
</g>
</svg>
